# Blender v2.79 (sub 0) OBJ File: 'Hehea2.blend'
# www.blender.org
mtllib BG_Sphere.mtl
o Cylinder.003
v 0.217025 1.489083 -0.721643
v 0.217025 3.489083 -0.721643
v 0.412115 1.489083 -0.702428
v 0.412115 3.489083 -0.702428
v 0.599708 1.489083 -0.645522
v 0.599708 3.489083 -0.645522
v 0.772595 1.489083 -0.553112
v 0.772595 3.489083 -0.553112
v 0.924132 1.489083 -0.428749
v 0.924132 3.489083 -0.428749
v 1.048494 1.489083 -0.277213
v 1.048494 3.489083 -0.277213
v 1.140904 1.489083 -0.104326
v 1.140904 3.489083 -0.104326
v 1.197810 1.489083 0.083267
v 1.197810 3.489083 0.083267
v 1.217025 1.489083 0.278357
v 1.217025 3.489083 0.278357
v 1.197810 1.489083 0.473448
v 1.197810 3.489083 0.473448
v 1.140904 1.489083 0.661041
v 1.140904 3.489083 0.661041
v 1.048494 1.489083 0.833928
v 1.048494 3.489083 0.833928
v 0.924132 1.489083 0.985464
v 0.924132 3.489083 0.985464
v 0.772595 1.489083 1.109827
v 0.772595 3.489083 1.109827
v 0.599708 1.489083 1.202237
v 0.599708 3.489083 1.202237
v 0.412115 1.489083 1.259143
v 0.412115 3.489083 1.259143
v 0.217025 1.489083 1.278357
v 0.217025 3.489083 1.278357
v 0.021934 1.489083 1.259143
v 0.021934 3.489083 1.259143
v -0.165659 1.489083 1.202237
v -0.165659 3.489083 1.202237
v -0.338546 1.489083 1.109827
v -0.338546 3.489083 1.109827
v -0.490082 1.489083 0.985464
v -0.490082 3.489083 0.985464
v -0.614445 1.489083 0.833927
v -0.614445 3.489083 0.833927
v -0.706855 1.489083 0.661040
v -0.706855 3.489083 0.661040
v -0.763761 1.489083 0.473447
v -0.763761 3.489083 0.473447
v -0.782975 1.489083 0.278356
v -0.782975 3.489083 0.278356
v -0.763760 1.489083 0.083266
v -0.763760 3.489083 0.083266
v -0.706854 1.489083 -0.104327
v -0.706854 3.489083 -0.104327
v -0.614444 1.489083 -0.277214
v -0.614444 3.489083 -0.277214
v -0.490081 1.489083 -0.428750
v -0.490081 3.489083 -0.428750
v -0.338544 1.489083 -0.553113
v -0.338544 3.489083 -0.553113
v -0.165657 1.489083 -0.645523
v -0.165657 3.489083 -0.645523
v 0.021936 1.489083 -0.702428
v 0.021936 3.489083 -0.702428
v 0.217025 3.842342 0.278357
vt 0.528735 0.297807
vt 0.585918 0.297807
vt 0.585918 0.986188
vt 0.528735 0.986188
vt 0.643102 0.297807
vt 0.643101 0.986188
vt 0.700285 0.297807
vt 0.700284 0.986188
vt 0.757468 0.297807
vt 0.757467 0.986188
vt 0.814651 0.297807
vt 0.814650 0.986188
vt 0.871834 0.297807
vt 0.871833 0.986188
vt 0.929018 0.297807
vt 0.929016 0.986188
vt 0.986201 0.297807
vt 0.986199 0.986188
vt 0.976453 0.297807
vt 0.912336 0.297807
vt 0.912334 0.986188
vt 0.976450 0.986188
vt 0.848219 0.297807
vt 0.848217 0.986188
vt 0.784102 0.297807
vt 0.784100 0.986188
vt 0.719985 0.297807
vt 0.719984 0.986188
vt 0.655868 0.297807
vt 0.655867 0.986188
vt 0.591751 0.297807
vt 0.591750 0.986188
vt 0.527634 0.297807
vt 0.527634 0.986188
vt 0.463517 0.297807
vt 0.463517 0.986188
vt 0.399400 0.297807
vt 0.399400 0.986188
vt 0.335283 0.297807
vt 0.335283 0.986188
vt 0.271167 0.297807
vt 0.271167 0.986188
vt 0.207050 0.297807
vt 0.207050 0.986188
vt 0.142933 0.297807
vt 0.142933 0.986188
vt 0.078816 0.297807
vt 0.078817 0.986188
vt 0.014699 0.297807
vt 0.014700 0.986188
vt 0.014088 0.297807
vt 0.071271 0.297807
vt 0.071272 0.986188
vt 0.014089 0.986188
vt 0.128454 0.297807
vt 0.128455 0.986188
vt 0.185637 0.297807
vt 0.185638 0.986188
vt 0.242820 0.297807
vt 0.242821 0.986188
vt 0.300003 0.297807
vt 0.300004 0.986188
vt 0.357186 0.297807
vt 0.357187 0.986188
vt 0.414370 0.297807
vt 0.414370 0.986188
vt 0.471553 0.297807
vt 0.471553 0.986188
vt 0.976450 0.986188
vt 0.399400 0.986188
vt 0.185638 0.986188
vt 0.757467 0.986188
vt 0.655867 0.986188
vt 0.078817 0.986188
vt 0.528735 0.986188
vt 0.471553 0.986188
vt 0.912334 0.986188
vt 0.335283 0.986188
vt 0.242821 0.986188
vt 0.814650 0.986188
vt 0.591750 0.986188
vt 0.014089 0.986188
vt 0.585918 0.986188
vt 0.848217 0.986188
vt 0.271167 0.986188
vt 0.300004 0.986188
vt 0.871833 0.986188
vt 0.527634 0.986188
vt 0.071272 0.986188
vt 0.643101 0.986188
vt 0.784100 0.986188
vt 0.207050 0.986188
vt 0.357187 0.986188
vt 0.929016 0.986188
vt 0.463517 0.986188
vt 0.128455 0.986188
vt 0.700284 0.986188
vt 0.719984 0.986188
vt 0.142933 0.986188
vt 0.414370 0.986188
vn 0.0000 0.0000 1.0000
vn -0.1951 0.0000 0.9808
vn -0.1615 -0.5611 0.8119
vn 0.0000 -0.5611 0.8278
vn -0.3827 0.0000 0.9239
vn -0.3168 -0.5611 0.7648
vn -0.5556 0.0000 0.8314
vn -0.4599 -0.5611 0.6883
vn -0.7071 0.0000 0.7071
vn -0.5853 -0.5611 0.5853
vn -0.8314 0.0000 0.5556
vn -0.6883 -0.5611 0.4599
vn -0.9239 0.0000 0.3827
vn -0.7648 -0.5611 0.3168
vn -0.9808 0.0000 0.1951
vn -0.8119 -0.5611 0.1615
vn -1.0000 0.0000 0.0000
vn -0.8278 -0.5611 0.0000
vn -0.9808 0.0000 -0.1951
vn -0.8119 -0.5611 -0.1615
vn -0.9239 0.0000 -0.3827
vn -0.7648 -0.5611 -0.3168
vn -0.8314 0.0000 -0.5556
vn -0.6883 -0.5611 -0.4599
vn -0.7071 0.0000 -0.7071
vn -0.5853 -0.5611 -0.5853
vn -0.5556 0.0000 -0.8314
vn -0.4599 -0.5611 -0.6883
vn -0.3827 0.0000 -0.9239
vn -0.3168 -0.5611 -0.7648
vn -0.1951 0.0000 -0.9808
vn -0.1615 -0.5611 -0.8119
vn 0.0000 0.0000 -1.0000
vn 0.0000 -0.5611 -0.8278
vn 0.1951 0.0000 -0.9808
vn 0.1615 -0.5611 -0.8119
vn 0.3827 0.0000 -0.9239
vn 0.3168 -0.5611 -0.7648
vn 0.5556 0.0000 -0.8314
vn 0.4599 -0.5611 -0.6883
vn 0.7071 0.0000 -0.7071
vn 0.5853 -0.5611 -0.5853
vn 0.8314 0.0000 -0.5556
vn 0.6883 -0.5611 -0.4599
vn 0.9239 0.0000 -0.3827
vn 0.7648 -0.5611 -0.3168
vn 0.9808 0.0000 -0.1951
vn 0.8119 -0.5611 -0.1615
vn 1.0000 0.0000 0.0000
vn 0.8278 -0.5611 0.0000
vn 0.9808 0.0000 0.1951
vn 0.8119 -0.5611 0.1615
vn 0.9239 0.0000 0.3827
vn 0.7648 -0.5611 0.3168
vn 0.8314 0.0000 0.5556
vn 0.6883 -0.5611 0.4599
vn 0.7071 0.0000 0.7071
vn 0.5853 -0.5611 0.5853
vn 0.5556 0.0000 0.8314
vn 0.4599 -0.5611 0.6883
vn 0.3827 0.0000 0.9239
vn 0.3168 -0.5611 0.7648
vn 0.1951 0.0000 0.9808
vn 0.1615 -0.5611 0.8119
vn 0.0000 -1.0000 0.0000
usemtl None
s 1
f 1/1/1 3/2/2 4/3/3 2/4/4
f 3/2/2 5/5/5 6/6/6 4/3/3
f 5/5/5 7/7/7 8/8/8 6/6/6
f 7/7/7 9/9/9 10/10/10 8/8/8
f 9/9/9 11/11/11 12/12/12 10/10/10
f 11/11/11 13/13/13 14/14/14 12/12/12
f 13/13/13 15/15/15 16/16/16 14/14/14
f 15/15/15 17/17/17 18/18/18 16/16/16
f 17/19/17 19/20/19 20/21/20 18/22/18
f 19/20/19 21/23/21 22/24/22 20/21/20
f 21/23/21 23/25/23 24/26/24 22/24/22
f 23/25/23 25/27/25 26/28/26 24/26/24
f 25/27/25 27/29/27 28/30/28 26/28/26
f 27/29/27 29/31/29 30/32/30 28/30/28
f 29/31/29 31/33/31 32/34/32 30/32/30
f 31/33/31 33/35/33 34/36/34 32/34/32
f 33/35/33 35/37/35 36/38/36 34/36/34
f 35/37/35 37/39/37 38/40/38 36/38/36
f 37/39/37 39/41/39 40/42/40 38/40/38
f 39/41/39 41/43/41 42/44/42 40/42/40
f 41/43/41 43/45/43 44/46/44 42/44/42
f 43/45/43 45/47/45 46/48/46 44/46/44
f 45/47/45 47/49/47 48/50/48 46/48/46
f 47/51/47 49/52/49 50/53/50 48/54/48
f 49/52/49 51/55/51 52/56/52 50/53/50
f 51/55/51 53/57/53 54/58/54 52/56/52
f 53/57/53 55/59/55 56/60/56 54/58/54
f 55/59/55 57/61/57 58/62/58 56/60/56
f 57/61/57 59/63/59 60/64/60 58/62/58
f 59/63/59 61/65/61 62/66/62 60/64/60
f 61/65/61 63/67/63 64/68/64 62/66/62
f 63/67/63 1/1/1 2/4/4 64/68/64
f 18/22/18 20/21/20 65/69/65
f 36/38/36 38/40/38 65/70/65
f 54/58/54 56/60/56 65/71/65
f 10/10/10 12/12/12 65/72/65
f 28/30/28 30/32/30 65/73/65
f 46/48/46 48/50/48 65/74/65
f 2/4/4 4/3/3 65/75/65
f 64/68/64 2/4/4 65/76/65
f 20/21/20 22/24/22 65/77/65
f 38/40/38 40/42/40 65/78/65
f 56/60/56 58/62/58 65/79/65
f 12/12/12 14/14/14 65/80/65
f 30/32/30 32/34/32 65/81/65
f 48/54/48 50/53/50 65/82/65
f 4/3/3 6/6/6 65/83/65
f 22/24/22 24/26/24 65/84/65
f 40/42/40 42/44/42 65/85/65
f 58/62/58 60/64/60 65/86/65
f 14/14/14 16/16/16 65/87/65
f 32/34/32 34/36/34 65/88/65
f 50/53/50 52/56/52 65/89/65
f 6/6/6 8/8/8 65/90/65
f 24/26/24 26/28/26 65/91/65
f 42/44/42 44/46/44 65/92/65
f 60/64/60 62/66/62 65/93/65
f 16/16/16 18/18/18 65/94/65
f 34/36/34 36/38/36 65/95/65
f 52/56/52 54/58/54 65/96/65
f 8/8/8 10/10/10 65/97/65
f 26/28/26 28/30/28 65/98/65
f 44/46/44 46/48/46 65/99/65
f 62/66/62 64/68/64 65/100/65
